# xmcd
#
# Track frame offsets:
#	150
#	9798
#	21605
#	43093
#	60681
#	73076
#	88349
#	99592
#	114562
#	121324
#	136852
#	146128
#	162518
#	172408
#	185853
#	203235
#
# Disc length: 2898 seconds
#
# Revision: 1
# Processed by: cddbd v1.5.1PL0 Copyright (c) Steve Scherf et al.
# Submitted via: audiograbber 1.81.02
#
DISCID=f80b5010
DTITLE=Eels - Electro-Shock Blues
DYEAR=1998
DGENRE=Rock
TTITLE0=Elizabeth On The Bathroom Floor
TTITLE1=Going To Your Funeral Part I
TTITLE2=Cancer For The Cure
TTITLE3=My Descent Into Madness
TTITLE4=3 Speed
TTITLE5=Hospital Food
TTITLE6=Electro-Shock Blues
TTITLE7=Efils' God
TTITLE8=Going To Your Funeral Part II
TTITLE9=Last Stop: This Town
TTITLE10=Baby Genius
TTITLE11=Climbing To The Moon
TTITLE12=Ant Farm
TTITLE13=Dead Of Winter
TTITLE14=The Medication Is Wearing Off
TTITLE15=P.S. You Rock My World
EXTD=DRD 50052 - 450 052-2
EXTT0=
EXTT1=
EXTT2=
EXTT3=
EXTT4=
EXTT5=
EXTT6=
EXTT7=
EXTT8=
EXTT9=
EXTT10=
EXTT11=
EXTT12=
EXTT13=
EXTT14=
EXTT15=
PLAYORDER=
